<?xml version="1.0" standalone="no"?>
<!DOCTYPE svg PUBLIC "-//W3C//DTD SVG 20010904//EN"
 "http://www.w3.org/TR/2001/REC-SVG-20010904/DTD/svg10.dtd">
<svg version="1.0" xmlns="http://www.w3.org/2000/svg"
 width="640.000000pt" height="640.000000pt" viewBox="0 0 640.000000 640.000000"
 preserveAspectRatio="xMidYMid meet">
<metadata>
Created by potrace 1.14, written by Peter Selinger 2001-2017
</metadata>
<g transform="translate(0.000000,640.000000) scale(0.100000,-0.100000)"
fill="#000000" stroke="none">
<path d="M2745 6379 c-346 -51 -682 -172 -945 -337 -137 -87 -361 -287 -466
-416 -101 -124 -216 -317 -281 -469 -64 -149 -130 -374 -159 -537 -54 -302
-102 -438 -168 -479 -90 -56 -190 -301 -231 -564 -13 -86 -15 -333 -2 -354 3
-4 8 -30 11 -58 9 -66 28 -140 81 -310 50 -163 62 -233 57 -330 -6 -114 -6
-136 2 -223 18 -196 74 -278 203 -298 100 -15 135 -33 153 -79 4 -11 11 -70
14 -131 8 -129 17 -241 22 -269 11 -58 18 -85 36 -140 21 -63 20 -142 -3 -230
-6 -22 -13 -49 -16 -60 -12 -49 -10 -257 2 -340 29 -189 98 -370 174 -456 29
-34 56 -52 100 -68 33 -12 66 -30 73 -40 24 -33 92 -70 187 -100 83 -27 119
-36 234 -56 15 -3 39 -7 55 -10 112 -20 484 -27 612 -12 220 26 415 83 625
181 122 57 138 66 375 209 309 187 429 281 532 417 71 93 141 245 171 370 97
405 207 546 640 825 348 225 446 295 530 381 95 96 185 254 245 429 83 240
216 783 266 1088 36 212 38 237 41 427 3 161 -1 213 -30 385 -12 69 -74 246
-120 340 -50 104 -128 226 -193 305 -61 73 -211 223 -292 291 -36 30 -67 56
-70 59 -16 18 -139 106 -225 163 -182 118 -310 175 -569 253 -167 50 -565 144
-716 170 -14 2 -34 6 -46 9 -12 3 -39 7 -60 10 -21 4 -46 8 -54 10 -21 6 -204
33 -270 40 -30 3 -66 8 -80 11 -65 15 -329 11 -445 -7z"/>
</g>
</svg>
