<?xml version="1.0" standalone="no"?>
<!DOCTYPE svg PUBLIC "-//W3C//DTD SVG 20010904//EN"
 "http://www.w3.org/TR/2001/REC-SVG-20010904/DTD/svg10.dtd">
<svg version="1.0" xmlns="http://www.w3.org/2000/svg"
 width="544.000000pt" height="640.000000pt" viewBox="0 0 544.000000 640.000000"
 preserveAspectRatio="xMidYMid meet">

<g transform="translate(0.000000,640.000000) scale(0.100000,-0.100000)"
fill="#000000" stroke="none">
<path d="M2310 6384 c-636 -81 -1171 -373 -1500 -819 -212 -287 -321 -559
-409 -1018 -40 -205 -46 -228 -87 -317 -27 -58 -42 -79 -66 -89 -93 -41 -210
-349 -238 -625 -19 -186 5 -375 80 -608 67 -210 72 -242 75 -473 3 -228 13
-288 61 -353 31 -40 66 -58 151 -77 146 -33 149 -37 163 -263 11 -188 22 -266
50 -344 26 -73 25 -115 -2 -241 -51 -233 -15 -529 88 -743 50 -102 86 -141
163 -176 36 -16 80 -42 96 -58 149 -143 763 -221 1180 -150 284 49 486 129
819 328 379 225 529 343 631 497 77 116 112 198 156 367 104 404 197 514 729
858 263 169 318 209 403 289 178 169 272 380 405 921 155 625 199 938 174
1230 -34 389 -187 708 -481 1000 -262 260 -553 455 -826 554 -417 150 -1320
329 -1640 325 -38 -1 -117 -7 -175 -15z"/>
</g>
</svg>
