<?xml version="1.0" standalone="no"?>
<!DOCTYPE svg PUBLIC "-//W3C//DTD SVG 20010904//EN"
 "http://www.w3.org/TR/2001/REC-SVG-20010904/DTD/svg10.dtd">
<svg version="1.0" xmlns="http://www.w3.org/2000/svg"
 width="2211.000000pt" height="2211.000000pt" viewBox="0 0 2211.000000 2211.000000"
 preserveAspectRatio="xMidYMid meet">
<metadata>
Created by potrace 1.14, written by Peter Selinger 2001-2017
</metadata>
<g transform="translate(0.000000,2211.000000) scale(0.100000,-0.100000)"
fill="#000000" stroke="none">
<path d="M6059 21780 c-6 -16 -17 -30 -25 -30 -8 0 -11 -6 -8 -15 4 -8 1 -15
-5 -15 -6 0 -11 -6 -11 -14 0 -8 -7 -17 -16 -20 -9 -4 -14 -9 -11 -13 4 -3 -5
-19 -18 -35 -14 -16 -25 -34 -25 -39 0 -5 -8 -18 -17 -28 -27 -30 -38 -45 -41
-61 -2 -8 -8 -16 -13 -18 -5 -2 -9 -10 -9 -18 0 -8 -5 -14 -11 -14 -6 0 -9 -7
-5 -15 3 -9 0 -15 -8 -15 -8 0 -19 -14 -26 -30 -7 -17 -18 -34 -24 -38 -6 -4
-20 -24 -30 -44 -10 -21 -23 -35 -29 -31 -6 4 -8 0 -4 -10 3 -10 2 -17 -3 -17
-6 0 -10 -7 -10 -15 0 -8 -7 -15 -15 -15 -8 0 -12 -6 -9 -13 3 -8 -7 -26 -22
-40 -15 -15 -24 -30 -21 -33 4 -4 -5 -15 -18 -26 -14 -10 -24 -25 -22 -31 1
-7 -3 -11 -9 -10 -7 1 -11 -5 -10 -15 0 -9 -5 -16 -11 -14 -8 1 -13 -8 -13
-21 0 -12 -9 -28 -20 -35 -12 -7 -18 -16 -15 -21 2 -5 -2 -14 -10 -21 -8 -7
-15 -19 -15 -27 0 -8 -12 -25 -27 -38 -16 -13 -23 -25 -16 -25 6 0 -2 -14 -18
-31 -16 -18 -27 -34 -25 -37 3 -2 -3 -12 -14 -21 -11 -9 -20 -23 -22 -31 -2
-8 -13 -25 -25 -36 -12 -12 -19 -24 -16 -27 3 -3 -6 -16 -19 -29 -14 -13 -24
-31 -22 -41 1 -11 0 -16 -3 -13 -13 13 -51 -54 -44 -78 1 -5 -5 -4 -13 4 -16
12 -22 4 -17 -23 1 -4 -10 -19 -24 -33 -14 -14 -25 -29 -25 -34 0 -5 -7 -16
-16 -24 -8 -9 -16 -25 -17 -35 0 -11 -5 -17 -11 -14 -5 4 -7 -1 -3 -11 4 -9 3
-15 -2 -12 -5 3 -11 -4 -14 -15 -3 -12 -10 -18 -16 -14 -7 3 -11 -3 -11 -15 0
-22 -23 -52 -34 -45 -3 3 -4 2 -1 -2 3 -3 -1 -13 -8 -21 -10 -13 -9 -14 3 -7
8 4 4 -2 -8 -15 -18 -16 -21 -25 -12 -30 10 -6 7 -12 -7 -25 -13 -11 -19 -25
-15 -39 3 -11 2 -18 -3 -14 -9 8 -35 -16 -35 -33 0 -6 -10 -21 -23 -33 -13
-12 -22 -27 -19 -34 2 -7 -1 -12 -7 -12 -6 0 -11 -8 -11 -19 0 -10 -11 -26
-24 -36 -16 -12 -22 -24 -18 -38 3 -14 1 -18 -6 -13 -8 5 -12 0 -12 -13 0 -12
-4 -21 -10 -21 -5 0 -10 -6 -10 -14 0 -8 -11 -28 -25 -44 -13 -16 -22 -32 -18
-35 3 -4 -2 -9 -11 -13 -9 -3 -14 -10 -11 -14 3 -5 -6 -22 -20 -38 -13 -16
-22 -32 -18 -35 3 -4 -2 -9 -11 -13 -9 -3 -13 -10 -10 -16 3 -5 -2 -18 -12
-29 -9 -10 -14 -22 -11 -25 4 -4 -5 -16 -19 -27 -14 -10 -23 -25 -20 -32 2 -8
-2 -16 -10 -19 -9 -3 -13 -10 -10 -15 3 -5 -1 -14 -9 -21 -7 -6 -11 -19 -8
-27 4 -11 2 -14 -5 -9 -11 7 -17 -6 -13 -27 1 -5 -10 -18 -24 -29 -14 -11 -23
-23 -20 -28 3 -5 -3 -13 -12 -19 -10 -6 -14 -11 -9 -11 4 0 1 -11 -8 -25 -9
-14 -13 -25 -10 -25 4 0 -1 -9 -11 -20 -10 -11 -15 -23 -12 -26 4 -4 -5 -15
-18 -26 -14 -11 -22 -25 -18 -33 3 -10 -1 -15 -12 -15 -11 0 -15 -5 -11 -15 3
-8 -2 -18 -10 -23 -9 -5 -15 -12 -14 -16 2 -8 -21 -69 -29 -76 -6 -5 -43 -79
-47 -92 -1 -5 -2 -13 -3 -19 0 -5 -5 -7 -11 -4 -6 4 -10 -5 -10 -19 0 -14 -4
-26 -10 -26 -5 0 -10 -8 -10 -18 0 -9 -9 -23 -20 -30 -11 -7 -20 -18 -20 -26
0 -17 -25 -67 -31 -61 -3 2 -6 -5 -6 -17 -1 -12 -6 -24 -10 -27 -15 -11 -34
-52 -28 -60 3 -5 -2 -12 -11 -15 -9 -3 -14 -13 -11 -20 3 -8 -1 -17 -10 -20
-9 -4 -13 -13 -9 -21 3 -9 -1 -18 -9 -21 -8 -4 -15 -15 -15 -25 0 -10 -4 -19
-10 -19 -5 0 -10 -13 -10 -30 0 -16 -4 -30 -10 -30 -5 0 -10 -9 -10 -20 0 -11
-4 -20 -10 -20 -5 0 -10 -9 -10 -20 0 -11 -4 -20 -10 -20 -5 0 -10 -9 -10 -20
0 -11 -5 -20 -11 -20 -6 0 -9 -6 -6 -14 3 -8 -1 -17 -9 -20 -8 -3 -14 -15 -14
-26 0 -11 -4 -20 -10 -20 -5 0 -10 -9 -10 -20 0 -11 -4 -20 -10 -20 -5 0 -10
-9 -10 -20 0 -11 -4 -20 -10 -20 -5 0 -10 -9 -10 -20 0 -11 -4 -20 -10 -20 -5
0 -10 -13 -10 -30 0 -16 -4 -30 -10 -30 -5 0 -10 -9 -10 -20 0 -11 -4 -20 -10
-20 -5 0 -10 -9 -10 -20 0 -11 -4 -20 -10 -20 -5 0 -10 -9 -10 -20 0 -11 -4
-20 -10 -20 -5 0 -10 -13 -10 -30 0 -16 -4 -30 -10 -30 -5 0 -10 -9 -10 -19 0
-11 -5 -21 -10 -23 -6 -2 -12 -13 -13 -25 0 -13 -7 -25 -13 -27 -7 -3 -10 -14
-7 -25 3 -12 1 -21 -6 -21 -6 0 -11 -9 -11 -20 0 -11 -4 -20 -10 -20 -5 0 -10
-9 -10 -20 0 -11 -4 -20 -10 -20 -5 0 -10 -13 -10 -29 0 -16 -5 -31 -10 -33
-6 -2 -12 -13 -13 -25 0 -12 -5 -19 -9 -17 -8 5 -12 -9 -9 -38 1 -10 -3 -18
-8 -18 -6 0 -11 -9 -11 -20 0 -11 -6 -23 -14 -26 -8 -3 -12 -16 -10 -35 2 -18
0 -28 -6 -24 -6 3 -10 -3 -10 -14 0 -10 -5 -21 -11 -23 -6 -2 -11 -16 -11 -32
0 -15 -6 -30 -14 -33 -7 -2 -10 -11 -7 -19 3 -7 -1 -16 -9 -19 -8 -3 -13 -17
-12 -35 1 -17 -4 -31 -12 -34 -8 -3 -11 -12 -7 -22 3 -9 0 -20 -7 -24 -7 -4
-12 -20 -12 -35 0 -14 -6 -29 -12 -31 -7 -3 -11 -18 -10 -34 1 -20 -3 -30 -12
-30 -7 0 -11 -6 -8 -13 3 -8 -2 -19 -10 -26 -8 -7 -13 -23 -10 -36 2 -13 -2
-25 -10 -28 -8 -3 -12 -16 -11 -31 2 -17 -2 -26 -11 -26 -7 0 -11 -6 -8 -14 3
-8 -1 -27 -9 -43 -8 -15 -13 -36 -12 -45 2 -10 -2 -18 -8 -18 -7 0 -12 -17
-13 -41 0 -22 -6 -44 -14 -49 -7 -4 -10 -13 -6 -19 4 -6 0 -21 -8 -33 -15 -23
-16 -26 -16 -54 0 -8 -4 -13 -9 -10 -4 3 -7 -7 -5 -21 1 -15 -2 -36 -8 -47 -6
-12 -12 -32 -13 -46 -1 -14 -6 -24 -12 -23 -5 1 -9 -17 -8 -42 2 -27 -2 -43
-9 -42 -6 1 -11 -14 -11 -36 0 -21 -5 -41 -12 -45 -6 -4 -10 -22 -8 -40 2 -20
-2 -35 -10 -38 -8 -3 -11 -24 -10 -60 1 -36 -3 -58 -11 -61 -7 -3 -11 -19 -9
-44 2 -22 -2 -45 -9 -52 -8 -8 -12 -42 -12 -97 0 -51 -3 -84 -9 -83 -15 2 -14
-765 1 -775 6 -4 10 -40 9 -90 -1 -54 3 -86 10 -88 6 -3 10 -28 9 -62 -1 -31
4 -66 11 -77 6 -11 11 -42 10 -68 -1 -28 3 -51 10 -53 6 -3 10 -27 10 -60 -1
-33 4 -59 11 -65 7 -6 11 -23 9 -39 -2 -16 2 -34 9 -39 7 -6 12 -30 11 -55 -1
-28 4 -47 12 -50 7 -3 11 -17 8 -35 -2 -17 2 -35 10 -41 8 -7 12 -28 10 -55
-1 -30 2 -46 12 -49 8 -4 12 -15 9 -31 -6 -30 2 -57 14 -50 5 3 7 -10 5 -29
-2 -21 3 -40 10 -46 7 -6 12 -19 10 -28 -1 -9 4 -24 12 -33 8 -9 12 -28 9 -43
-3 -15 1 -32 10 -41 10 -9 13 -26 10 -45 -2 -19 1 -33 9 -37 7 -5 12 -19 11
-33 0 -16 4 -24 12 -22 10 2 12 -6 8 -28 -3 -21 0 -33 9 -37 9 -3 14 -18 13
-40 -1 -19 3 -38 9 -41 5 -4 9 -18 8 -30 -1 -13 4 -26 12 -29 9 -4 12 -16 9
-34 -3 -18 2 -35 11 -44 8 -9 13 -25 10 -36 -3 -12 0 -22 9 -26 9 -3 12 -14
10 -30 -3 -15 1 -26 10 -30 10 -4 13 -15 10 -34 -2 -18 1 -35 10 -44 8 -8 13
-25 10 -40 -3 -18 0 -25 11 -25 11 0 14 -8 11 -30 -3 -22 0 -30 10 -30 9 0 13
-7 9 -20 -3 -11 0 -26 7 -33 7 -7 12 -28 12 -46 -1 -18 5 -36 11 -38 7 -3 13
-18 13 -33 0 -16 5 -32 11 -35 6 -4 8 -13 5 -21 -3 -7 1 -20 9 -28 8 -8 13
-29 11 -50 -2 -25 2 -36 12 -36 8 0 13 -9 12 -22 -3 -38 -1 -50 10 -43 6 4 10
-8 10 -30 0 -22 4 -34 10 -30 6 4 10 -12 10 -39 0 -37 3 -46 17 -46 12 0 14
-3 7 -10 -12 -12 -6 -72 7 -64 5 3 9 -11 9 -30 0 -19 5 -38 10 -41 6 -3 10
-19 10 -35 0 -16 5 -32 10 -35 6 -3 10 -24 10 -46 0 -21 5 -39 10 -39 6 0 10
-15 10 -34 0 -19 4 -37 9 -41 5 -3 9 -18 9 -33 0 -15 7 -40 15 -56 9 -16 13
-34 10 -39 -3 -6 -6 -25 -5 -43 1 -31 -1 -34 -26 -32 -15 1 -33 8 -40 15 -8 7
-18 11 -23 8 -5 -4 -9 1 -9 11 0 13 -3 14 -13 5 -11 -8 -19 -5 -35 13 -11 13
-17 27 -14 31 4 4 -3 4 -15 1 -14 -5 -23 -3 -23 3 0 6 -3 10 -7 10 -21 -3 -33
3 -33 17 0 8 -4 12 -10 9 -5 -3 -10 -1 -10 4 0 6 -7 11 -15 11 -8 0 -24 9 -35
20 -11 11 -27 20 -35 20 -8 0 -15 4 -15 9 0 5 -11 12 -25 15 -13 3 -29 15 -35
26 -6 11 -16 18 -22 14 -5 -4 -21 6 -34 21 -13 16 -24 25 -24 20 0 -4 -11 0
-25 9 -14 9 -25 14 -25 11 0 -3 -11 5 -23 19 -13 14 -27 22 -31 18 -4 -4 -13
0 -19 9 -7 9 -16 16 -21 16 -4 0 -19 8 -31 17 -13 10 -27 17 -30 16 -4 -1 -17
10 -31 25 -13 14 -24 24 -24 20 0 -8 -72 33 -80 45 -4 6 -14 12 -23 14 -9 1
-25 12 -36 25 -11 13 -25 20 -31 16 -5 -3 -13 1 -16 9 -3 9 -14 16 -25 16 -10
0 -25 9 -33 21 -8 12 -19 18 -25 15 -5 -4 -16 2 -23 12 -16 22 -77 54 -89 46
-5 -3 -9 2 -9 11 0 9 -5 13 -10 10 -6 -3 -10 -2 -10 4 0 6 -20 19 -44 30 -24
11 -46 27 -50 36 -11 29 -26 15 -26 -25 0 -22 5 -40 10 -40 6 0 10 -30 10 -69
0 -39 4 -72 9 -75 13 -8 20 -56 9 -62 -5 -3 -4 -11 2 -19 8 -10 8 -15 0 -20
-8 -5 -7 -10 3 -18 16 -13 28 -87 15 -87 -5 0 -4 -9 2 -20 8 -15 8 -20 -1 -20
-7 0 -3 -8 7 -18 19 -16 23 -53 10 -104 -2 -10 -1 -17 3 -16 21 2 26 -7 24
-51 0 -28 -4 -54 -7 -60 -4 -5 -2 -12 4 -16 5 -3 15 -15 21 -27 8 -15 8 -19 0
-14 -8 5 -8 0 -2 -17 6 -16 6 -28 -2 -36 -7 -7 -7 -11 0 -11 6 0 8 -11 5 -25
-2 -15 1 -27 9 -30 10 -4 13 -19 11 -49 -2 -24 2 -54 9 -67 15 -29 19 -58 8
-65 -5 -2 -4 -15 0 -27 9 -24 11 -31 11 -48 0 -5 4 -8 9 -5 5 4 6 -9 1 -29 -4
-19 -4 -35 0 -35 4 0 6 -13 5 -29 -1 -17 3 -32 10 -34 8 -4 10 -25 8 -66 -2
-34 1 -61 6 -61 12 0 20 -59 9 -66 -4 -3 -4 -13 1 -22 4 -9 6 -23 4 -30 -3 -7
1 -20 8 -28 14 -17 17 -60 6 -87 -4 -11 0 -21 11 -28 15 -10 18 -23 16 -75 -2
-40 1 -68 9 -76 13 -14 16 -72 5 -84 -4 -4 1 -17 11 -29 13 -17 17 -38 15 -77
-1 -29 2 -58 7 -64 13 -15 17 -65 9 -89 -5 -13 -1 -31 11 -52 12 -19 16 -34
10 -38 -6 -3 -7 -15 -1 -29 4 -12 8 -31 7 -42 -1 -10 3 -18 8 -17 7 1 10 -24
10 -65 -1 -41 3 -72 11 -79 7 -7 11 -29 9 -50 -2 -20 1 -43 7 -51 7 -8 13 -30
14 -50 1 -21 6 -49 12 -64 6 -15 9 -35 6 -43 -4 -8 1 -17 9 -21 10 -3 14 -14
11 -30 -3 -14 1 -27 9 -29 8 -4 12 -20 10 -45 -1 -26 2 -39 10 -37 7 1 11 -8
11 -22 -1 -14 4 -31 12 -38 7 -7 11 -22 9 -34 -2 -11 2 -22 9 -25 8 -3 12 -14
8 -26 -3 -12 1 -24 10 -29 9 -5 14 -19 12 -34 -1 -16 3 -28 12 -32 9 -3 12
-14 10 -30 -3 -15 1 -26 10 -30 7 -3 11 -9 8 -15 -3 -5 2 -18 11 -28 9 -10 14
-24 10 -30 -4 -6 1 -20 10 -30 9 -10 14 -24 10 -30 -4 -6 1 -20 10 -30 9 -10
14 -24 9 -31 -4 -8 -3 -10 4 -5 12 7 14 2 14 -46 1 -15 6 -26 12 -25 6 1 10
-6 10 -16 -1 -9 4 -17 11 -17 7 0 12 -14 13 -32 0 -17 5 -34 10 -37 11 -8 25
-41 26 -62 1 -9 7 -23 15 -32 7 -10 10 -17 5 -17 -5 0 -2 -6 6 -13 9 -7 16
-21 16 -32 0 -11 5 -19 11 -18 7 2 11 -10 11 -29 -1 -18 4 -34 10 -36 7 -2 12
-12 12 -23 0 -10 5 -19 10 -19 6 0 10 -9 10 -20 0 -11 5 -20 11 -20 6 0 8 -8
4 -19 -3 -10 1 -24 10 -31 8 -7 15 -21 15 -31 0 -11 5 -19 10 -19 6 0 10 -9
10 -20 0 -11 5 -20 10 -20 6 0 10 -9 10 -20 0 -11 5 -20 10 -20 6 0 10 -9 10
-20 0 -11 5 -20 10 -20 6 0 10 -9 10 -20 0 -11 5 -20 11 -20 6 0 9 -9 6 -20
-3 -11 1 -27 9 -34 8 -8 14 -22 14 -30 0 -9 5 -16 10 -16 6 0 10 -9 10 -20 0
-11 5 -20 10 -20 6 0 10 -9 10 -20 0 -11 5 -20 10 -20 6 0 10 -9 10 -20 0 -11
5 -20 10 -20 6 0 10 -9 10 -20 0 -11 5 -20 10 -20 6 0 10 -9 10 -20 0 -11 5
-20 10 -20 6 0 10 -9 10 -20 0 -11 5 -20 10 -20 6 0 10 -9 10 -20 0 -11 5 -20
11 -20 6 0 9 -9 6 -20 -3 -11 0 -18 6 -17 6 1 13 -8 15 -21 2 -12 8 -22 13
-22 5 0 9 -8 9 -18 0 -10 9 -24 20 -32 11 -8 20 -22 20 -32 0 -10 5 -18 10
-18 6 0 10 -9 10 -20 0 -11 5 -20 10 -20 6 0 10 -6 10 -13 0 -18 24 -67 33
-67 4 0 7 -9 7 -20 0 -11 5 -20 10 -20 6 0 10 -8 10 -18 0 -10 9 -24 20 -32
11 -8 20 -22 20 -32 0 -10 5 -18 10 -18 6 0 10 -9 10 -20 0 -11 5 -20 10 -20
6 0 10 -9 10 -20 0 -11 5 -20 10 -20 6 0 10 -9 10 -20 0 -11 5 -20 10 -20 6 0
10 -9 10 -19 0 -10 7 -22 16 -25 8 -3 12 -10 9 -16 -3 -5 -1 -10 4 -10 6 0 11
-7 11 -15 0 -8 5 -15 10 -15 6 0 10 -9 10 -20 0 -11 5 -20 10 -20 6 0 10 -8
10 -18 0 -10 9 -24 20 -32 11 -8 20 -22 20 -30 0 -9 11 -26 25 -38 16 -14 22
-27 18 -38 -4 -12 -3 -15 5 -10 11 6 17 -12 13 -37 -1 -5 3 -6 9 -2 5 3 10 -1
10 -9 0 -9 6 -15 13 -13 6 1 11 -4 9 -12 -1 -7 8 -23 21 -35 13 -12 22 -27 20
-33 -2 -6 7 -19 20 -30 13 -10 22 -24 19 -31 -2 -6 1 -12 7 -12 6 0 11 -7 11
-15 0 -8 7 -15 16 -15 8 0 13 -4 9 -10 -3 -5 5 -21 17 -35 13 -15 23 -30 23
-35 0 -4 12 -20 28 -35 26 -27 32 -39 27 -60 -1 -5 1 -7 5 -3 7 6 65 -53 65
-67 0 -13 37 -54 44 -48 3 3 7 1 7 -5 1 -7 2 -15 3 -20 2 -16 44 -62 56 -62 7
0 10 -8 8 -17 -3 -12 8 -28 33 -48 35 -28 78 -85 64 -85 -4 0 11 -15 34 -34
22 -18 37 -36 34 -40 -4 -3 -1 -6 6 -6 8 0 11 -7 7 -15 -3 -9 0 -15 9 -15 8 0
15 -6 15 -14 0 -8 9 -18 20 -21 11 -3 20 -11 20 -16 0 -6 14 -22 31 -36 16
-14 28 -32 25 -39 -3 -8 1 -14 9 -14 8 0 15 -6 15 -14 0 -8 9 -18 20 -21 11
-3 20 -14 20 -22 0 -9 3 -14 6 -11 3 4 22 -12 42 -35 20 -22 47 -51 60 -64 13
-13 20 -28 17 -33 -3 -6 1 -10 9 -10 9 0 16 -4 16 -8 0 -5 31 -39 69 -76 54
-54 67 -73 63 -90 -6 -24 -21 -40 -42 -44 -8 -2 -17 -8 -18 -13 -2 -5 -7 -7
-12 -4 -5 3 -14 -1 -22 -8 -7 -7 -15 -13 -19 -13 -9 1 -144 -68 -150 -78 -4
-5 -11 -6 -17 -2 -5 3 -15 -1 -22 -9 -7 -8 -16 -13 -20 -10 -4 3 -11 -2 -14
-11 -4 -10 -14 -14 -26 -11 -13 3 -20 0 -20 -9 0 -8 -10 -14 -25 -14 -14 0
-25 -4 -25 -10 0 -5 -6 -10 -14 -10 -8 0 -22 -8 -32 -17 -10 -10 -19 -17 -21
-16 -8 4 -43 -10 -43 -18 0 -5 -11 -9 -25 -9 -14 0 -25 -3 -25 -7 0 -5 -29
-21 -64 -37 -36 -17 -63 -33 -60 -38 3 -4 -2 -5 -10 -2 -9 4 -16 1 -16 -6 0
-7 -8 -10 -20 -7 -11 3 -20 2 -20 -3 0 -9 -299 -160 -318 -160 -6 0 -12 -4
-12 -10 0 -5 9 -10 20 -10 11 0 20 -4 20 -10 0 -5 9 -10 20 -10 11 0 20 -4 20
-10 0 -5 13 -10 29 -10 16 0 34 -7 41 -15 7 -8 16 -12 21 -9 5 3 9 0 9 -5 0
-6 8 -11 19 -11 10 0 24 -7 31 -15 7 -8 16 -12 21 -9 5 3 9 0 9 -5 0 -6 13
-11 29 -11 16 0 34 -7 41 -15 6 -8 15 -14 18 -14 15 2 52 -14 52 -22 0 -5 9
-9 20 -9 11 0 20 -4 20 -10 0 -5 8 -10 19 -10 10 0 24 -7 31 -15 7 -8 16 -12
21 -9 5 3 12 -1 15 -9 3 -8 16 -13 30 -11 14 1 28 -4 30 -11 3 -8 12 -11 20
-8 8 3 14 0 14 -6 0 -6 7 -11 16 -11 8 0 22 -7 31 -16 9 -8 21 -13 28 -10 8 3
16 -1 18 -8 3 -8 17 -12 31 -11 17 2 26 -2 26 -11 0 -8 6 -11 15 -8 8 4 15 1
15 -5 0 -6 8 -11 19 -11 10 0 24 -7 31 -15 7 -9 15 -13 18 -10 3 3 14 -2 24
-12 10 -9 18 -13 18 -9 0 4 10 0 21 -8 12 -8 27 -12 34 -10 6 3 18 -2 25 -10
7 -9 16 -13 21 -10 5 3 9 0 9 -6 0 -6 4 -8 10 -5 6 3 10 1 10 -4 0 -6 3 -10 8
-9 4 1 17 -3 28 -10 12 -6 25 -8 29 -4 5 4 5 1 1 -5 -7 -12 -3 -15 27 -17 6
-1 15 -5 19 -11 4 -5 15 -10 25 -10 10 -1 37 -11 61 -23 23 -12 42 -19 42 -15
0 5 4 2 9 -6 5 -8 17 -16 27 -17 9 -2 20 -7 23 -12 7 -11 71 -33 71 -25 0 3 9
-2 19 -11 11 -10 24 -15 29 -12 6 3 13 -1 16 -10 3 -9 13 -14 20 -11 8 3 17
-1 20 -9 3 -9 10 -13 15 -10 5 3 14 -1 21 -9 7 -8 16 -13 20 -10 5 3 15 -2 24
-10 8 -8 19 -14 23 -13 14 4 83 -26 83 -35 0 -5 7 -7 15 -3 8 3 15 1 15 -4 0
-5 10 -12 22 -16 13 -4 28 -14 35 -23 11 -14 12 -14 13 -1 1 13 2 13 13 0 7
-8 23 -17 37 -19 14 -1 28 -8 32 -15 4 -6 8 -7 8 -2 0 5 9 1 19 -8 11 -10 24
-15 30 -12 5 4 14 -2 20 -11 6 -10 11 -14 11 -9 0 5 9 1 19 -8 11 -10 25 -15
30 -11 6 3 14 -1 17 -10 4 -10 14 -15 25 -12 10 3 24 -2 30 -9 7 -8 18 -13 26
-10 8 3 16 -1 19 -8 3 -8 12 -17 20 -20 10 -4 13 -1 9 7 -4 6 -1 5 7 -3 7 -8
20 -16 28 -18 8 -2 18 -8 21 -14 3 -5 10 -9 15 -9 5 1 16 -5 26 -13 9 -8 19
-12 23 -8 3 3 16 -6 29 -21 13 -15 26 -24 29 -20 4 3 25 -12 46 -35 21 -22 42
-38 45 -35 3 4 6 0 6 -9 0 -8 14 -25 30 -38 17 -13 30 -28 30 -34 0 -6 13 -26
30 -44 16 -18 30 -37 30 -41 0 -4 15 -23 32 -42 19 -19 31 -42 30 -52 -2 -11
0 -17 5 -14 10 6 38 -26 34 -38 -1 -3 8 -16 21 -29 13 -12 24 -28 26 -36 2 -8
12 -20 22 -27 11 -8 17 -20 14 -28 -4 -9 1 -18 11 -21 9 -4 14 -12 11 -19 -2
-7 6 -21 19 -31 13 -9 21 -23 18 -29 -2 -7 3 -15 12 -19 9 -3 13 -10 10 -16
-3 -5 6 -21 21 -35 15 -14 24 -25 20 -25 -4 0 -1 -10 6 -22 7 -13 12 -26 13
-30 0 -3 9 -15 21 -25 12 -10 20 -26 18 -35 -1 -11 4 -18 13 -18 8 0 13 -6 11
-12 -3 -7 1 -19 9 -26 7 -8 11 -17 8 -22 -3 -4 2 -13 10 -20 7 -6 12 -17 9
-23 -2 -7 6 -17 18 -22 13 -6 23 -17 23 -26 0 -9 6 -23 13 -31 6 -8 9 -18 5
-21 -3 -4 1 -9 10 -13 9 -3 14 -14 12 -26 -3 -11 -2 -18 1 -15 10 10 44 -32
38 -48 -4 -10 0 -15 11 -15 11 0 15 -5 11 -15 -3 -8 1 -18 9 -22 7 -5 14 -12
15 -18 1 -18 25 -65 32 -65 4 0 5 -9 3 -20 -2 -11 1 -20 6 -20 16 0 41 -29 34
-39 -3 -6 2 -14 11 -19 10 -6 15 -16 11 -26 -4 -10 -1 -16 9 -16 8 0 13 -4 9
-9 -3 -5 3 -17 12 -27 10 -10 17 -19 16 -21 -9 -11 -1 -33 9 -27 8 5 9 2 5 -9
-3 -9 0 -20 7 -24 19 -11 58 -82 51 -93 -3 -5 4 -12 15 -15 16 -5 18 -10 10
-20 -8 -9 -7 -14 5 -19 8 -3 15 -12 15 -21 0 -8 5 -15 10 -15 6 0 10 -6 9 -12
-3 -23 1 -41 7 -35 11 11 34 -21 28 -37 -4 -11 -1 -16 11 -16 9 0 14 -4 10 -9
-3 -5 2 -16 10 -24 8 -9 15 -22 15 -30 0 -8 7 -20 15 -27 8 -6 14 -15 13 -18
-3 -16 15 -41 25 -35 6 4 8 -2 5 -15 -4 -15 -2 -22 8 -22 8 0 14 -9 14 -19 0
-11 5 -23 11 -26 5 -4 8 -12 6 -18 -2 -7 7 -19 20 -28 14 -9 24 -19 23 -23 -2
-12 34 -86 43 -86 4 0 6 -4 3 -9 -3 -4 3 -16 14 -26 11 -10 20 -27 20 -37 0
-11 9 -22 20 -25 11 -3 20 -14 20 -24 0 -11 11 -29 25 -41 19 -16 22 -24 13
-30 -9 -5 -8 -8 5 -8 9 0 17 -6 17 -14 0 -8 7 -16 15 -20 8 -3 14 -9 13 -14
-3 -8 32 -58 65 -93 9 -11 17 -23 17 -29 0 -5 5 -10 11 -10 5 0 8 -4 5 -8 -6
-9 77 -102 92 -102 5 0 9 -10 8 -22 -1 -14 4 -22 12 -21 6 2 12 -1 12 -6 0
-12 159 -171 171 -171 5 0 8 -6 6 -12 -1 -7 4 -12 11 -11 6 2 12 0 12 -5 0
-13 47 -62 54 -55 3 3 6 1 6 -5 0 -14 78 -92 91 -92 5 0 34 -24 63 -52 30 -29
60 -54 68 -56 7 -2 21 -12 30 -23 10 -12 23 -19 30 -17 7 3 25 -11 40 -29 15
-19 29 -33 32 -31 7 5 85 -46 86 -55 0 -5 9 -5 20 -2 12 4 20 2 20 -5 0 -13
31 -46 39 -43 12 5 81 -31 81 -42 0 -16 46 -39 64 -32 10 4 16 1 16 -9 0 -10
6 -14 15 -10 8 3 19 -2 23 -11 6 -9 16 -14 25 -10 9 3 18 -1 21 -10 4 -8 13
-13 21 -9 9 3 15 -1 15 -10 0 -11 6 -15 19 -11 12 3 22 -1 25 -10 4 -8 13 -13
21 -9 8 3 21 -2 30 -10 8 -8 19 -12 25 -9 6 3 12 0 15 -7 3 -8 18 -15 32 -16
15 -1 32 -7 37 -12 6 -6 23 -10 38 -10 15 0 28 -4 28 -10 0 -5 11 -10 24 -10
14 0 28 -5 31 -11 4 -6 13 -8 21 -5 8 3 14 -1 14 -10 0 -10 6 -14 14 -11 8 3
20 -1 26 -9 8 -8 30 -14 56 -14 23 0 46 -4 49 -10 3 -5 28 -10 56 -10 27 0 49
-4 49 -10 0 -5 14 -10 31 -10 16 0 28 -4 25 -9 -3 -4 27 -9 67 -10 39 -1 74
-6 75 -11 2 -6 26 -10 53 -10 27 0 49 -4 49 -10 0 -6 36 -10 89 -10 63 0 91
-4 94 -12 3 -10 7 -10 20 0 9 8 33 12 56 11 22 -2 42 -1 45 2 9 8 76 -2 76
-12 0 -5 9 -9 20 -9 11 0 20 5 20 10 0 6 56 10 149 10 91 0 152 4 156 10 8 12
105 11 105 -2 0 -4 72 -8 161 -8 104 0 158 -3 154 -10 -3 -5 0 -10 9 -10 8 0
16 4 18 9 4 12 69 18 85 8 6 -4 15 -2 18 3 5 8 14 5 27 -7 15 -13 22 -15 25
-5 3 8 29 12 84 12 46 0 79 4 79 10 0 6 33 10 80 10 47 0 80 4 80 10 0 6 27
10 60 10 33 0 60 4 60 10 0 6 18 10 39 10 22 0 43 4 46 10 3 5 26 10 51 10 28
0 47 5 50 14 3 8 14 11 28 9 13 -3 27 0 30 6 4 6 23 11 42 11 19 0 34 5 34 10
0 6 8 10 18 10 9 0 25 7 35 15 11 7 25 11 31 9 7 -3 18 2 25 10 7 8 18 13 25
10 7 -3 25 2 41 10 23 12 31 13 37 3 6 -9 8 -9 8 0 0 17 48 40 90 44 22 2 41
12 50 25 8 12 23 20 33 18 9 -1 17 2 17 7 0 5 7 9 15 9 9 0 18 6 21 14 3 8 12
12 21 9 8 -3 19 0 23 7 5 8 17 15 27 16 9 2 19 8 21 14 5 13 82 53 82 43 0 -5
5 -1 10 7 5 8 14 15 19 15 5 0 21 10 35 22 14 13 26 20 26 16 0 -4 5 -2 12 5
7 7 20 12 29 12 9 0 20 7 23 16 3 8 10 13 15 10 4 -3 28 14 52 39 24 24 46 42
50 39 4 -2 24 14 45 36 21 22 42 40 47 40 13 0 93 73 90 81 -1 4 5 6 13 5 17
-3 312 284 306 297 -2 4 3 7 11 7 7 0 20 12 28 27 20 41 101 123 113 116 6 -4
5 1 -3 10 -11 14 -11 18 3 23 9 3 13 10 10 15 -3 5 0 9 6 9 14 0 34 21 38 40
2 8 17 27 33 42 17 15 29 34 27 45 -2 10 2 17 8 16 6 -1 22 18 34 42 13 25 27
42 31 39 5 -3 9 4 9 15 0 12 5 21 11 21 6 0 8 7 5 15 -3 9 1 18 9 21 8 4 15
12 15 20 0 8 5 14 10 14 6 0 10 9 10 21 0 11 4 18 9 15 5 -4 15 7 23 24 7 16
17 30 21 30 5 0 7 8 5 17 -2 10 5 26 15 36 10 10 15 22 12 26 -2 5 1 11 9 14
8 3 22 23 32 44 10 21 22 41 27 44 5 4 6 12 3 18 -4 6 0 14 8 17 9 3 16 16 16
29 0 13 7 25 15 28 8 3 23 26 35 52 11 25 25 45 31 45 8 0 8 4 0 14 -9 10 -8
15 4 20 8 3 15 12 15 21 0 8 5 15 10 15 6 0 10 7 10 15 0 8 5 15 10 15 6 0 10
7 10 15 0 9 6 18 14 21 8 3 12 12 9 20 -3 8 0 14 7 14 6 0 9 4 6 9 -3 5 3 20
14 33 11 14 16 29 12 32 -4 4 1 12 11 17 9 6 15 14 12 19 -3 5 6 20 20 34 14
15 24 30 21 35 -3 5 1 11 9 15 8 3 12 12 9 19 -3 8 2 17 11 21 9 3 14 10 10
15 -3 5 -1 12 5 16 5 3 10 14 10 25 0 10 7 21 16 24 8 3 13 10 9 15 -3 5 6 21
20 35 14 15 24 30 21 35 -3 5 1 11 9 15 8 3 12 12 9 19 -3 8 2 17 10 20 9 4
13 13 10 20 -3 8 2 17 10 20 9 4 13 12 11 19 -3 7 6 21 19 31 14 11 22 25 19
33 -3 8 1 14 11 14 9 0 13 6 10 13 -3 8 2 19 10 26 8 7 13 18 10 25 -3 8 2 16
11 20 9 3 14 10 11 14 -3 5 5 20 17 33 12 13 21 27 19 32 -1 4 5 15 13 23 8 9
13 19 10 24 -3 4 2 10 10 14 8 3 12 12 9 19 -3 8 1 17 9 20 14 5 62 87 50 87
-3 0 6 11 21 25 15 14 25 29 22 34 -3 5 1 12 10 15 8 3 13 10 9 15 -3 6 4 19
16 29 11 11 22 28 24 38 1 11 7 18 13 17 6 -1 9 9 7 23 -1 13 0 22 3 20 5 -6
37 24 37 35 0 5 9 19 20 31 11 13 20 28 20 34 0 6 15 25 33 42 17 16 32 35 32
42 0 6 14 25 30 42 17 16 30 34 30 40 0 14 171 183 185 183 6 0 21 10 34 22
13 12 27 20 31 18 4 -3 13 2 20 10 7 8 16 12 21 9 5 -3 9 -1 9 3 0 7 34 24 65
32 6 1 18 10 27 18 10 9 18 12 18 8 0 -5 7 0 15 11 9 12 14 14 15 6 0 -10 4
-9 16 3 10 9 25 14 36 12 10 -3 22 1 26 10 5 8 16 15 24 17 9 1 23 8 32 15 9
7 16 10 16 7 0 -4 7 0 16 9 13 12 19 13 24 4 5 -8 10 -5 15 10 5 16 12 20 27
15 14 -4 18 -2 14 5 -6 10 20 16 47 12 4 0 7 3 7 7 0 5 18 15 41 22 23 8 43
20 46 28 3 7 11 11 19 8 7 -3 18 2 24 9 7 8 16 12 21 9 5 -3 12 1 15 10 3 8
12 12 19 10 7 -3 24 0 37 7 13 7 27 12 31 11 4 -1 10 4 13 12 3 8 12 12 20 9
7 -3 17 2 20 11 3 9 10 13 15 10 5 -3 17 2 26 11 13 13 18 14 24 3 7 -10 9 -9
9 5 0 17 9 21 43 18 9 -1 20 5 23 13 3 9 14 16 23 16 9 0 31 9 49 20 17 11 32
17 32 13 0 -3 9 2 20 12 11 10 20 14 20 9 0 -5 4 -3 9 5 5 8 20 15 34 15 14 1
32 8 41 15 9 7 16 10 16 6 0 -5 9 0 20 10 11 10 20 14 20 10 0 -4 9 0 20 10
11 10 20 14 20 10 0 -4 8 -1 18 7 9 9 25 14 35 13 10 -2 21 3 24 11 3 8 11 13
19 10 7 -3 18 2 25 10 7 8 18 13 26 10 7 -3 13 -1 13 4 0 5 11 12 25 16 14 3
25 11 25 16 0 6 7 8 15 4 9 -3 15 0 15 10 0 11 6 15 19 11 11 -3 22 1 25 8 3
8 16 12 30 11 15 -2 26 2 26 8 0 7 10 12 22 13 11 1 24 6 27 11 5 7 34 22 51
26 3 1 15 8 28 15 13 7 30 10 37 7 7 -2 16 2 19 10 3 9 10 13 15 10 5 -3 14 1
21 9 7 8 21 15 31 15 11 0 19 5 19 11 0 5 4 8 9 5 5 -3 14 1 21 10 7 8 19 13
25 10 7 -2 18 4 25 14 7 10 19 16 27 13 7 -3 13 0 13 6 0 7 6 11 13 10 27 -3
48 2 42 10 -3 6 3 8 14 6 11 -2 22 3 25 11 3 8 15 14 26 14 11 0 20 4 20 8 0
9 59 32 83 32 9 0 17 5 17 11 0 5 4 8 9 5 5 -3 14 1 21 9 10 13 9 15 -9 15
-11 0 -21 5 -21 10 0 6 -7 10 -15 10 -8 0 -30 9 -50 20 -20 11 -47 20 -61 20
-14 0 -23 4 -20 8 6 10 -29 30 -59 34 -23 3 -45 22 -45 38 0 6 -4 9 -9 6 -10
-7 -71 22 -71 33 0 4 -13 6 -30 3 -23 -3 -30 0 -30 12 0 10 -4 14 -10 11 -5
-3 -10 1 -10 11 0 13 -3 14 -15 4 -9 -8 -15 -8 -15 -2 0 13 -56 42 -82 42 -10
0 -18 5 -18 10 0 6 -6 10 -14 10 -8 0 -17 7 -20 16 -3 8 -11 12 -17 8 -6 -3
-14 -2 -18 4 -3 6 -13 12 -21 14 -8 2 -21 9 -28 16 -8 7 -18 10 -23 7 -5 -4
-9 -1 -9 4 0 6 -7 11 -15 11 -8 0 -15 5 -15 10 0 6 -11 10 -24 10 -13 0 -27 7
-30 16 -3 8 -11 12 -17 8 -6 -3 -14 -2 -18 4 -3 6 -13 12 -21 14 -8 2 -21 9
-28 16 -8 7 -18 10 -23 7 -5 -4 -9 1 -9 9 0 9 -6 13 -15 10 -8 -3 -22 1 -31
10 -8 9 -19 14 -24 11 -5 -3 -10 -1 -12 4 -1 5 -10 11 -18 13 -8 2 -21 9 -28
16 -8 7 -18 10 -23 7 -5 -4 -9 1 -9 10 0 11 -5 15 -14 12 -26 -10 -7 44 30 85
18 21 34 35 34 31 0 -4 11 8 25 27 14 19 25 30 26 24 0 -5 6 3 12 18 15 32 73
98 88 98 6 0 8 4 4 9 -3 5 4 12 15 16 11 3 20 14 20 22 0 9 3 14 6 10 9 -8 34
18 34 36 0 16 107 127 115 119 3 -3 5 2 5 11 0 9 6 17 14 17 9 0 13 7 11 19
-2 12 5 23 20 31 14 7 22 16 20 20 -2 4 6 13 20 20 13 7 21 18 19 25 -5 12 82
105 99 105 4 0 6 4 2 10 -7 12 16 50 31 50 11 0 26 23 28 43 1 4 7 11 14 16 8
5 13 11 13 15 -1 3 2 7 6 9 20 7 48 44 45 60 -3 11 2 17 12 17 10 0 15 4 12 9
-3 5 1 12 10 15 8 3 13 10 10 15 -3 5 9 22 27 37 17 16 32 35 33 42 2 27 5 31
23 37 11 3 18 13 17 22 -3 19 25 52 37 45 5 -2 8 2 6 9 -3 28 1 38 21 44 11 4
18 10 15 15 -3 4 2 11 10 14 8 3 15 9 14 13 -3 21 2 34 12 27 7 -4 10 1 7 12
-2 11 6 27 19 37 13 10 21 22 18 27 -2 4 7 19 21 33 14 14 23 30 20 35 -3 6 1
12 9 16 8 3 15 13 15 23 0 10 9 24 21 31 11 7 18 19 15 27 -2 7 2 16 10 19 9
3 13 10 10 14 -3 5 6 20 20 35 13 14 23 32 22 39 -2 7 3 12 10 10 8 -1 12 5
10 15 -2 10 4 27 14 37 9 10 15 22 13 26 -2 3 7 14 20 24 13 10 21 24 18 32
-3 8 0 14 6 14 7 0 11 8 9 18 -2 10 2 16 10 14 7 -1 12 3 11 10 -2 18 23 78
33 78 4 0 8 7 8 15 0 17 35 56 43 48 3 -3 3 4 0 16 -3 13 -1 21 6 21 7 0 9 5
6 10 -3 6 -1 10 5 10 6 0 9 4 6 9 -4 5 -3 11 1 13 5 1 16 17 25 35 12 23 13
33 5 37 -7 2 -4 5 6 5 10 1 17 9 17 21 0 11 7 20 16 20 8 0 13 4 10 9 -7 10
16 71 26 71 4 0 8 9 8 20 0 10 8 24 18 29 9 6 13 11 9 11 -4 0 -2 10 5 23 7
12 11 29 9 37 -2 8 0 12 5 8 8 -8 34 36 34 58 0 8 4 14 8 14 9 0 35 60 33 77
-1 8 5 10 15 6 11 -4 15 -2 11 4 -7 12 14 73 25 73 4 0 8 9 8 20 0 11 6 20 14
20 9 0 12 7 9 19 -3 11 2 21 11 24 9 4 13 13 10 22 -4 8 0 17 9 21 9 3 13 12
10 20 -3 7 1 16 9 19 8 3 14 16 13 28 -1 12 5 30 13 40 8 9 11 17 7 17 -4 0 0
9 10 20 10 11 14 20 10 20 -4 0 0 9 10 20 10 11 14 20 10 20 -4 0 -1 8 8 18
10 10 15 21 12 24 -7 7 15 58 32 76 7 8 11 18 7 23 -3 5 1 12 9 15 8 3 13 16
11 30 -1 14 4 28 11 30 7 3 11 14 8 25 -4 13 -1 19 8 17 10 -2 14 7 13 30 0
22 4 32 14 32 9 0 12 3 9 6 -3 4 -2 15 4 26 6 11 12 29 14 40 3 12 8 24 13 27
5 3 8 14 7 23 -2 9 4 19 12 22 9 4 12 13 8 25 -4 13 0 23 12 30 10 6 15 11 10
11 -4 0 0 14 8 30 9 17 13 34 11 39 -3 5 1 14 8 20 8 7 13 23 12 36 -2 13 3
26 10 29 7 3 11 14 9 25 -2 12 3 27 10 35 8 8 13 23 10 34 -2 12 3 23 12 26
10 4 14 15 11 31 -3 14 0 26 8 29 7 3 11 16 10 30 -2 14 3 27 10 30 7 3 11 13
10 23 -2 10 3 28 11 40 8 12 12 26 9 32 -4 5 1 17 10 25 10 11 14 25 10 41 -4
14 0 29 8 38 8 8 13 26 12 41 -2 15 3 33 10 41 9 8 13 29 11 54 -2 25 1 42 9
45 7 3 11 22 10 46 -1 24 3 48 10 54 7 7 11 39 11 75 -1 35 4 65 10 69 6 4 10
31 9 61 -1 32 3 55 10 58 7 3 11 29 11 69 0 36 4 69 10 72 6 4 10 31 9 61 -1
30 4 66 11 79 7 13 11 44 9 69 -2 30 1 46 9 50 9 3 13 27 13 75 0 41 4 73 11
77 6 4 10 29 8 59 -1 31 2 53 9 56 7 3 12 33 13 72 1 38 5 70 10 74 4 3 9 34
10 69 1 36 7 71 12 78 6 7 9 29 7 48 -2 19 0 35 5 35 5 0 4 7 -3 15 -10 12 -9
15 4 15 15 0 17 10 15 66 -1 38 2 69 8 72 6 4 11 28 10 53 0 25 3 51 7 57 4 7
2 12 -6 12 -9 1 -8 4 3 13 11 8 17 29 18 66 0 30 5 57 11 61 5 3 9 34 9 69 -1
34 4 68 10 74 6 6 11 35 11 64 0 39 4 55 18 62 9 6 11 11 5 11 -9 0 -10 7 -3
25 5 13 6 27 1 29 -10 7 -1 69 12 78 6 3 9 34 8 69 -2 41 2 64 10 70 8 5 12
28 10 67 -1 34 2 63 8 67 11 6 16 45 5 45 -3 0 -12 -7 -21 -15 -8 -8 -18 -13
-23 -10 -4 3 -10 -1 -13 -9 -3 -8 -22 -22 -41 -31 -20 -10 -36 -21 -36 -26 0
-5 -6 -9 -14 -9 -7 0 -19 -7 -26 -15 -7 -8 -16 -12 -22 -9 -5 3 -18 -5 -29
-18 -12 -12 -25 -23 -30 -23 -5 0 -14 -7 -19 -15 -5 -8 -10 -11 -10 -6 0 5 -9
1 -20 -9 -11 -10 -20 -15 -20 -11 0 4 -7 0 -16 -8 -8 -9 -19 -14 -23 -12 -4 3
-14 -4 -21 -15 -8 -10 -20 -19 -26 -19 -6 0 -17 -7 -24 -15 -7 -8 -16 -12 -22
-9 -5 3 -18 -5 -29 -18 -12 -12 -25 -23 -30 -23 -4 0 -18 -8 -29 -18 -12 -10
-41 -28 -66 -39 -24 -12 -44 -26 -44 -30 0 -4 -6 -8 -14 -8 -7 0 -19 -7 -26
-15 -7 -8 -16 -12 -21 -10 -4 3 -16 -3 -26 -14 -10 -11 -25 -21 -33 -23 -8 -2
-25 -14 -38 -26 -12 -13 -29 -21 -37 -18 -8 3 -14 0 -12 -7 1 -7 -6 -12 -15
-12 -9 0 -25 -10 -36 -23 -11 -12 -25 -22 -32 -22 -7 0 -21 -10 -31 -22 -11
-11 -22 -18 -26 -15 -4 4 -18 -3 -31 -15 -14 -13 -22 -16 -18 -8 4 8 -1 5 -11
-6 -10 -12 -33 -29 -50 -38 -18 -9 -33 -21 -33 -27 0 -6 -9 -9 -20 -6 -11 3
-18 1 -15 -4 3 -4 -6 -11 -20 -15 -14 -3 -30 -14 -35 -23 -6 -10 -9 -12 -10
-3 0 7 -4 11 -9 8 -5 -4 -16 -3 -25 0 -12 5 -13 11 -6 24 6 12 6 21 1 25 -11
6 2 60 19 80 8 10 8 15 0 20 -8 5 -8 10 0 20 8 10 8 15 0 20 -8 5 -5 14 8 29
13 14 17 27 12 41 -4 13 -1 26 12 39 11 13 15 23 9 29 -7 7 -6 17 0 29 5 10 6
18 2 18 -4 0 -1 5 8 10 11 6 15 18 11 36 -3 19 -1 25 7 20 6 -4 11 -4 12 1 0
4 2 18 3 31 2 12 -2 22 -7 22 -6 0 -2 9 7 19 10 11 15 25 10 32 -4 8 -3 10 5
5 8 -6 10 -1 5 18 -4 19 -2 28 10 32 11 4 13 11 7 23 -7 11 -5 21 7 34 18 20
25 47 12 47 -4 0 -6 9 -3 20 3 11 9 17 14 14 9 -5 12 5 12 40 -1 11 6 27 14
35 11 10 12 16 4 19 -7 2 -5 12 7 27 10 13 17 36 16 53 -1 19 4 33 13 36 8 3
11 10 8 16 -8 13 4 52 14 45 5 -2 7 9 5 25 -3 22 1 30 12 30 8 0 12 5 9 11 -9
14 3 61 14 54 5 -2 7 11 5 31 -2 22 2 42 11 50 7 7 11 23 8 34 -4 13 0 20 10
20 10 0 13 9 11 29 -2 19 2 31 11 35 8 3 12 12 9 21 -4 8 0 25 8 38 8 12 13
34 12 49 -2 15 3 29 11 32 8 3 11 13 8 24 -2 10 2 25 10 33 7 8 13 23 11 34
-2 11 2 22 7 26 6 3 11 21 12 40 1 19 7 40 14 47 7 7 10 19 7 26 -3 7 1 20 8
27 7 8 13 28 12 44 0 17 5 39 13 51 7 11 10 24 6 28 -4 4 -1 11 7 16 8 5 15
24 15 42 0 18 5 40 10 48 5 8 10 27 10 41 0 14 5 32 11 40 7 8 11 26 9 41 -2
15 3 32 9 38 7 5 12 26 11 45 -1 21 4 36 12 39 9 4 12 16 8 35 -3 18 0 33 9
40 7 6 12 25 11 41 -1 16 3 34 10 40 6 5 11 27 10 47 -1 21 4 47 11 58 7 11
11 35 9 52 -1 18 3 37 10 43 7 6 11 29 10 55 -1 27 3 46 11 49 8 3 11 25 10
68 -1 39 3 68 10 75 7 7 11 31 9 55 -1 24 3 52 9 63 8 12 12 53 12 104 -1 47
3 89 9 95 15 15 15 724 0 729 -6 3 -10 36 -10 78 1 43 -4 79 -11 86 -6 7 -10
37 -9 70 1 35 -3 63 -11 70 -6 7 -11 29 -9 50 1 21 -4 43 -11 51 -8 7 -12 25
-10 39 3 14 -1 31 -8 38 -7 7 -12 30 -11 51 1 22 -3 42 -7 45 -5 3 -10 18 -12
32 -1 14 -7 32 -13 39 -6 7 -9 28 -8 46 1 21 -3 32 -12 32 -9 0 -12 8 -9 24 2
14 0 26 -6 28 -6 2 -11 20 -11 41 -1 20 -6 38 -13 41 -6 2 -10 18 -9 35 1 19
-3 31 -10 31 -7 0 -12 8 -12 18 0 42 -3 53 -15 46 -6 -4 -8 -3 -4 4 3 6 1 23
-6 39 -6 15 -12 35 -12 44 -1 9 -7 23 -15 32 -7 9 -11 26 -8 36 3 11 -1 22 -9
25 -7 3 -11 14 -9 25 2 11 -3 25 -11 32 -8 6 -12 22 -10 35 3 16 0 24 -10 24
-10 0 -13 8 -10 26 3 16 0 27 -9 31 -8 3 -13 15 -11 26 2 12 -3 31 -10 43 -8
11 -11 24 -7 29 5 4 2 5 -4 1 -7 -4 -14 -2 -14 3 -1 6 -3 16 -4 21 -1 6 -3 19
-4 31 0 11 -6 17 -11 14 -7 -4 -9 3 -6 19 3 14 -2 30 -10 37 -8 7 -13 18 -10
25 3 7 -2 15 -9 18 -8 3 -13 17 -12 33 1 18 -3 27 -10 25 -8 -1 -13 8 -13 23
0 14 -5 25 -10 25 -6 0 -8 11 -6 25 3 14 1 23 -5 20 -8 -6 -13 9 -6 19 1 2 -6
13 -17 25 -10 11 -16 27 -13 35 3 8 -1 20 -9 27 -8 7 -13 18 -10 26 3 8 -1 16
-10 20 -9 3 -14 13 -11 24 3 10 -2 24 -9 30 -8 7 -13 18 -10 26 3 8 -1 16 -10
20 -8 3 -13 11 -10 18 3 8 -2 16 -11 19 -10 4 -14 15 -11 36 3 20 0 30 -9 30
-7 0 -13 9 -13 19 0 10 -7 21 -15 25 -8 3 -12 12 -9 21 4 8 1 15 -6 15 -7 0
-10 6 -7 14 3 8 -1 17 -9 20 -8 3 -14 16 -14 28 0 24 -36 103 -58 126 -7 8
-10 18 -7 23 4 5 1 9 -5 9 -7 0 -10 6 -7 13 3 8 -3 20 -13 27 -14 10 -16 18
-9 31 7 13 4 21 -11 32 -11 7 -17 16 -14 20 3 3 -4 19 -16 35 -12 17 -20 34
-16 40 3 5 -3 17 -14 27 -11 10 -17 22 -14 26 3 5 0 9 -5 9 -6 0 -11 9 -11 20
0 11 -6 23 -14 26 -8 3 -12 13 -8 26 3 14 1 19 -6 14 -6 -4 -12 3 -14 16 -2
13 -9 22 -15 21 -7 -2 -10 4 -7 12 3 8 -1 22 -10 31 -9 8 -14 19 -11 24 3 4
-2 13 -10 20 -7 6 -11 19 -8 27 4 11 2 14 -5 9 -8 -5 -12 0 -12 12 0 11 -6 25
-14 32 -8 6 -12 19 -9 27 4 10 2 14 -5 9 -6 -4 -12 3 -14 16 -2 13 -9 22 -15
21 -6 -1 -10 5 -8 15 1 9 -4 25 -12 34 -8 9 -12 21 -9 26 3 6 -1 12 -9 16 -9
3 -12 12 -8 22 4 12 3 15 -5 10 -7 -4 -12 -2 -12 3 0 22 -2 26 -17 44 -9 9
-12 17 -8 17 4 0 0 9 -10 20 -10 11 -14 20 -10 20 4 0 0 9 -10 20 -10 11 -15
20 -11 20 4 0 0 7 -8 16 -9 8 -14 19 -11 23 2 5 -4 16 -15 26 -11 10 -20 24
-20 32 0 7 -7 16 -15 19 -8 4 -13 10 -10 14 3 5 -1 15 -9 23 -8 8 -12 17 -9
21 3 3 -2 15 -11 25 -10 11 -15 24 -12 29 3 6 -1 13 -10 16 -9 4 -14 9 -10 13
3 3 -1 15 -11 25 -9 10 -12 18 -8 18 5 0 -4 14 -20 30 -16 17 -25 30 -20 30 4
0 0 9 -10 20 -10 11 -14 20 -10 20 4 0 0 9 -9 19 -10 11 -15 25 -11 30 3 6 -1
11 -9 11 -9 0 -13 6 -10 14 3 8 -6 24 -20 37 -14 12 -23 26 -20 31 3 4 -2 11
-11 14 -8 4 -15 11 -14 18 3 25 -2 37 -13 30 -7 -5 -9 -2 -5 9 6 16 -26 61
-37 50 -3 -3 -6 6 -6 20 0 15 -5 27 -11 27 -5 0 -8 4 -5 8 3 5 -6 20 -20 35
-14 15 -23 31 -20 36 3 5 -1 11 -9 15 -8 3 -15 15 -15 26 0 11 -4 20 -10 20
-5 0 -10 7 -10 16 0 20 -25 45 -35 36 -5 -4 -5 1 -2 10 3 9 -1 22 -9 29 -8 7
-13 18 -10 25 3 7 -6 20 -20 29 -14 9 -23 24 -22 33 2 10 -3 16 -11 14 -8 -2
-11 3 -8 12 4 9 -4 26 -18 40 -14 14 -25 32 -25 41 0 8 -4 15 -10 15 -5 0 -10
13 -10 29 0 18 -8 35 -18 43 -10 7 -22 25 -25 40 -4 15 -17 38 -30 51 -12 12
-23 29 -25 37 -2 7 -12 21 -23 31 -10 9 -19 24 -19 33 0 9 -7 16 -15 16 -8 0
-14 3 -13 8 3 14 -16 47 -39 70 -13 12 -19 22 -12 22 8 0 8 4 -1 15 -7 8 -16
12 -21 9 -5 -3 -9 -2 -8 3 2 15 -13 53 -22 53 -5 0 -9 7 -9 15 0 8 -4 15 -10
15 -5 0 -10 7 -10 15 0 8 -5 15 -11 15 -5 0 -8 4 -5 9 3 5 -6 21 -19 35 -14
15 -25 33 -25 39 0 7 -9 19 -20 27 -11 8 -20 22 -20 32 0 10 -7 18 -16 18 -8
0 -12 5 -9 10 3 6 1 10 -5 10 -6 0 -8 5 -5 10 3 6 1 10 -5 10 -6 0 -9 4 -6 8
3 5 -4 15 -15 22 -10 8 -19 20 -19 28 0 7 -11 25 -24 39 -14 15 -23 30 -21 34
3 4 -2 9 -10 13 -8 3 -15 12 -15 21 0 8 -4 15 -10 15 -5 0 -6 7 -3 17 4 11 3
14 -5 9 -7 -4 -12 -1 -12 9 0 9 -4 13 -10 10 -6 -4 -10 5 -10 20 0 14 -4 24
-9 21 -5 -3 -12 1 -15 10 -3 8 -10 13 -15 10 -5 -3 -7 3 -4 14 3 11 0 20 -6
20 -6 0 -11 9 -11 19 0 10 -7 22 -16 25 -8 3 -13 10 -10 15 3 5 -1 12 -10 15
-8 3 -12 10 -9 16 3 6 -1 13 -9 16 -9 3 -14 10 -11 14 3 4 -2 11 -11 14 -8 3
-13 10 -9 16 3 5 -3 15 -15 22 -11 7 -20 18 -20 25 0 7 -10 24 -22 39 -13 14
-23 31 -23 37 -1 7 -6 11 -13 9 -7 -1 -11 1 -10 5 2 13 -15 47 -34 68 -10 11
-21 30 -24 42 -4 13 -13 23 -21 23 -8 0 -11 5 -8 10 3 6 1 10 -5 10 -6 0 -9 3
-6 8 7 11 -21 45 -32 38 -6 -3 -8 2 -5 14 3 12 0 20 -8 20 -7 0 -9 3 -6 7 4 3
-1 12 -11 19 -9 7 -18 17 -18 23 -1 6 -2 16 -3 22 0 5 -5 8 -10 5 -5 -3 -8 2
-7 12 0 9 -6 17 -14 17 -17 0 -21 -62 -6 -83 6 -8 6 -12 0 -10 -5 2 -11 -1
-12 -7 -2 -5 -9 -16 -15 -24 -9 -11 -9 -13 -1 -8 14 8 13 -111 -1 -133 -6 -9
-4 -11 4 -5 10 6 11 3 2 -13 -8 -15 -8 -22 2 -25 9 -4 9 -6 -1 -6 -8 -1 -10
-6 -6 -13 13 -20 12 -48 -1 -48 -9 0 -12 -26 -11 -91 1 -50 -1 -92 -3 -95 -10
-9 -7 -44 3 -44 7 0 7 -3 1 -8 -15 -11 -17 -32 -3 -32 7 0 2 -7 -10 -16 -16
-11 -20 -20 -14 -32 10 -20 8 -144 -2 -161 -4 -6 -1 -11 6 -11 8 0 9 -3 3 -8
-12 -8 -13 -32 -2 -48 4 -7 1 -14 -6 -17 -10 -4 -13 -45 -13 -186 1 -119 -2
-180 -9 -177 -7 2 -11 -34 -13 -98 -3 -124 -3 -110 1 -173 2 -35 -2 -54 -10
-57 -8 -3 -12 -31 -11 -88 1 -113 0 -118 -17 -118 -8 0 -12 -6 -9 -15 12 -30
10 -115 -3 -119 -8 -3 -12 -18 -10 -38 2 -18 -3 -46 -10 -61 -8 -16 -12 -35
-9 -43 3 -8 0 -14 -6 -14 -7 0 -7 -4 1 -14 9 -11 8 -18 -4 -30 -9 -9 -15 -26
-14 -39 2 -12 -3 -33 -10 -45 -7 -13 -10 -26 -7 -29 3 -4 1 -12 -5 -20 -9 -10
-8 -13 2 -13 10 -1 10 -4 -3 -13 -9 -7 -18 -26 -20 -42 -1 -17 -8 -29 -14 -28
-6 1 -11 -5 -11 -13 0 -7 3 -14 6 -14 3 0 6 -11 6 -25 0 -14 -6 -25 -14 -25
-9 0 -12 -8 -8 -25 3 -17 -1 -30 -12 -38 -9 -7 -17 -21 -18 -32 -8 -65 -18
-103 -32 -125 -9 -14 -11 -21 -4 -17 9 6 11 3 7 -7 -3 -9 -10 -16 -15 -16 -5
0 -9 -12 -9 -26 0 -14 -4 -23 -10 -19 -6 4 -10 -6 -10 -24 0 -18 -7 -34 -17
-40 -12 -7 -14 -10 -4 -11 10 0 10 -5 -3 -25 -9 -14 -14 -29 -11 -34 2 -5 -2
-12 -11 -15 -11 -4 -15 -15 -12 -35 3 -22 0 -31 -13 -34 -13 -4 -16 -11 -12
-27 4 -16 3 -21 -5 -16 -13 8 -16 -3 -12 -43 1 -16 -2 -21 -11 -16 -9 6 -11 2
-7 -13 4 -15 0 -23 -14 -27 -14 -5 -16 -10 -8 -20 8 -10 6 -15 -10 -20 -11 -3
-18 -11 -14 -16 8 -14 -5 -61 -15 -54 -5 3 -7 -5 -3 -17 3 -14 2 -19 -6 -14
-8 5 -12 0 -12 -13 0 -12 -4 -21 -10 -21 -5 0 -10 -12 -10 -26 0 -14 -4 -23
-10 -19 -5 3 -10 -3 -10 -14 0 -12 -4 -21 -10 -21 -5 0 -10 -11 -10 -25 0 -15
-5 -24 -12 -23 -8 2 -12 -6 -10 -21 2 -15 0 -21 -7 -17 -6 4 -11 0 -11 -8 0
-9 -9 -30 -20 -48 -11 -18 -20 -41 -20 -51 0 -10 -4 -15 -10 -12 -10 6 -14 -7
-11 -34 2 -7 -2 -10 -8 -6 -6 3 -11 0 -11 -8 0 -8 -7 -18 -16 -21 -8 -3 -12
-10 -9 -16 3 -6 -1 -17 -9 -26 -9 -9 -14 -19 -11 -24 3 -4 -2 -10 -10 -14 -9
-3 -12 -12 -8 -22 4 -12 3 -15 -5 -10 -7 4 -12 1 -12 -7 0 -8 -7 -17 -15 -21
-8 -3 -12 -12 -9 -21 4 -10 0 -15 -11 -15 -11 0 -15 -5 -11 -15 3 -9 -4 -24
-19 -37 -13 -11 -22 -25 -19 -30 3 -5 -6 -18 -20 -29 -15 -11 -24 -24 -21 -29
3 -5 -3 -17 -14 -27 -11 -10 -21 -25 -23 -33 -2 -8 -11 -21 -20 -30 -9 -8 -18
-21 -20 -29 -2 -7 -36 -46 -75 -85 -40 -40 -73 -78 -73 -85 0 -14 -97 -111
-111 -111 -5 0 -9 -5 -9 -11 0 -15 -26 -39 -34 -32 -3 4 -6 1 -6 -6 0 -16 -46
-62 -54 -54 -3 4 -6 -3 -6 -14 0 -22 -64 -96 -74 -86 -3 4 -6 1 -6 -5 0 -6
-31 -43 -70 -81 -39 -38 -70 -74 -70 -80 0 -14 -107 -121 -114 -113 -3 3 -6 0
-6 -6 0 -13 -62 -77 -72 -74 -5 1 -8 -5 -8 -13 0 -8 -4 -15 -10 -15 -5 0 -10
-6 -10 -13 0 -7 -10 -24 -22 -37 -13 -14 -21 -29 -20 -35 2 -5 0 -7 -3 -3 -4
4 -34 -20 -67 -52 -33 -33 -64 -60 -69 -60 -6 0 -7 -4 -4 -10 3 -5 1 -10 -4
-10 -6 0 -11 -7 -11 -16 0 -8 -4 -12 -10 -9 -5 3 -10 1 -10 -4 0 -17 -3 -23
-36 -56 -41 -43 -72 -50 -94 -22 -10 12 -16 27 -13 33 2 6 -3 14 -12 17 -10 4
-14 15 -11 31 2 14 -1 27 -7 29 -7 2 -12 12 -13 23 -1 24 -15 57 -27 65 -5 4
-10 21 -11 38 0 20 -5 30 -13 27 -7 -3 -10 3 -7 19 2 14 -2 25 -11 28 -8 4
-12 15 -10 26 2 11 -2 25 -10 31 -7 6 -12 22 -11 35 2 13 -3 26 -11 29 -8 3
-11 11 -7 17 3 6 1 15 -7 19 -7 5 -14 21 -15 35 0 15 -7 30 -14 35 -7 4 -9 16
-5 29 4 14 2 21 -7 21 -8 0 -14 10 -15 22 -1 11 -7 24 -12 28 -6 3 -9 16 -7
27 3 13 -2 24 -11 27 -9 4 -13 13 -9 21 3 9 -1 18 -9 21 -9 4 -13 15 -11 29 3
14 -1 26 -9 29 -8 3 -12 14 -10 25 2 12 -3 27 -11 36 -8 8 -15 17 -14 20 1 21
-1 25 -10 20 -7 -4 -9 3 -6 19 3 15 -2 32 -10 41 -9 8 -13 19 -10 24 4 5 1 11
-4 13 -6 2 -12 13 -12 25 -2 22 -28 21 -28 -2 0 -15 -76 -95 -90 -95 -4 0 -7
-7 -6 -16 1 -9 -14 -33 -34 -53 -20 -20 -45 -50 -55 -68 -10 -18 -22 -30 -26
-27 -4 2 -10 -4 -14 -15 -3 -11 -17 -26 -30 -35 -14 -9 -25 -22 -25 -30 0 -7
-15 -29 -32 -48 -46 -49 -73 -82 -69 -88 1 -2 -6 -7 -16 -11 -10 -4 -14 -8
-10 -8 4 -1 2 -7 -5 -15 -7 -8 -16 -12 -19 -10 -3 2 -14 -13 -23 -34 -9 -21
-35 -53 -56 -71 -22 -18 -37 -37 -35 -41 6 -10 -54 -73 -84 -89 -11 -6 -18
-17 -15 -25 6 -15 -60 -89 -70 -79 -3 4 -6 -5 -6 -19 0 -22 -32 -61 -53 -65
-12 -3 -47 -49 -47 -62 0 -5 -19 -29 -42 -52 -24 -24 -42 -46 -41 -50 3 -10
-94 -109 -100 -102 -3 3 -4 -3 -3 -13 4 -24 -24 -51 -51 -48 -24 2 -213 188
-213 210 0 7 -7 17 -16 22 -8 5 -16 16 -18 25 -1 9 -10 23 -19 29 -9 7 -17 20
-19 28 -2 8 -9 21 -15 28 -7 7 -13 22 -13 33 0 11 -4 17 -10 14 -5 -3 -10 3
-10 14 0 11 -10 27 -21 35 -13 9 -19 21 -16 30 4 10 1 16 -9 16 -10 0 -14 6
-11 14 3 8 -1 20 -9 26 -8 7 -14 19 -14 26 0 8 -5 14 -11 14 -6 0 -8 7 -5 15
3 9 -1 18 -10 22 -8 3 -13 12 -10 20 3 7 -1 16 -9 19 -8 4 -15 15 -15 25 0 10
-9 24 -20 31 -11 7 -20 23 -20 36 0 13 -4 21 -9 18 -5 -3 -15 14 -22 38 -7 25
-17 42 -21 40 -4 -3 -8 4 -8 15 0 12 -4 21 -10 21 -5 0 -10 11 -10 24 0 16 -7
27 -20 31 -13 4 -20 15 -20 31 0 15 -6 24 -16 24 -8 0 -13 4 -10 9 6 10 -16
61 -26 61 -5 0 -8 9 -8 20 0 11 -4 20 -10 20 -5 0 -10 8 -10 19 0 10 -7 24
-15 31 -9 7 -25 33 -36 57 -11 23 -23 43 -28 43 -5 0 -7 9 -4 20 3 11 0 20 -6
20 -6 0 -11 7 -11 15 0 9 -6 18 -14 21 -8 3 -12 13 -8 26 3 14 1 19 -6 14 -7
-4 -12 -1 -12 9 0 9 -4 13 -10 10 -5 -3 -10 2 -10 12 0 10 -7 27 -15 37 -8 10
-12 23 -9 27 3 5 -1 9 -9 9 -11 0 -13 7 -9 22 3 14 2 19 -6 14 -8 -5 -12 2
-12 19 0 15 -4 24 -10 20 -5 -3 -10 1 -10 10 0 10 -11 31 -25 47 -14 16 -23
34 -19 39 3 5 -1 9 -9 9 -10 0 -13 7 -10 20 4 14 0 20 -11 20 -10 0 -14 4 -11
10 3 5 -2 21 -11 35 -9 14 -12 25 -8 25 5 0 4 4 -3 8 -6 4 -13 14 -15 22 -2 8
-13 23 -25 33 -12 10 -20 24 -17 31 3 7 -2 16 -10 19 -9 4 -13 13 -10 20 3 8
-2 17 -11 21 -9 3 -14 10 -11 15 3 5 -1 14 -9 21 -7 6 -12 17 -9 24 3 8 -2 16
-11 20 -9 3 -14 10 -11 15 3 5 -1 14 -9 21 -8 7 -12 16 -9 22 3 5 -5 18 -18
30 -12 11 -22 24 -20 30 1 5 -5 16 -13 24 -8 9 -13 19 -10 24 3 5 1 11 -5 15
-5 3 -11 1 -11 -4 -1 -6 -2 -15 -3 -20 0 -5 -10 -18 -21 -28 -11 -10 -21 -25
-23 -33 -2 -8 -7 -16 -12 -18 -5 -2 -6 -10 -3 -18 3 -7 -2 -16 -10 -20 -9 -3
-14 -14 -12 -25 2 -11 -2 -19 -10 -19 -9 0 -12 -8 -10 -20 2 -11 0 -18 -5 -15
-4 3 -13 -9 -19 -25 -5 -17 -15 -30 -21 -30 -6 0 -8 -4 -5 -10 3 -5 1 -10 -5
-10 -6 0 -8 -5 -5 -10 3 -6 -1 -13 -10 -16 -9 -4 -14 -12 -11 -20 3 -7 -2 -18
-10 -25 -8 -7 -13 -18 -10 -26 3 -7 -1 -13 -10 -13 -8 0 -13 -4 -9 -9 3 -5 -2
-17 -11 -25 -9 -9 -14 -23 -11 -30 3 -8 -5 -19 -19 -27 -14 -7 -23 -18 -20
-25 3 -7 -2 -18 -9 -24 -8 -7 -12 -16 -9 -21 3 -5 -2 -12 -11 -15 -8 -4 -15
-11 -14 -18 3 -24 -1 -37 -11 -31 -5 3 -10 -1 -10 -11 0 -25 -42 -94 -53 -87
-6 4 -8 0 -4 -10 3 -10 2 -17 -3 -17 -6 0 -10 -7 -10 -16 0 -8 -4 -12 -10 -9
-5 3 -7 0 -4 -8 3 -8 0 -18 -5 -22 -6 -3 -9 -10 -6 -15 3 -4 -2 -13 -10 -20
-8 -7 -15 -21 -15 -31 0 -9 -15 -34 -34 -53 -18 -20 -30 -39 -25 -42 5 -3 7
-10 3 -15 -3 -5 -10 -7 -15 -4 -5 4 -9 -3 -9 -15 0 -11 -6 -23 -14 -26 -8 -3
-12 -13 -9 -23 2 -9 -6 -28 -19 -42 -13 -14 -22 -33 -20 -43 3 -11 0 -16 -7
-12 -6 4 -11 2 -11 -4 0 -7 -10 -26 -22 -43 -13 -18 -22 -38 -20 -44 2 -7 -2
-13 -8 -13 -5 0 -10 -9 -10 -21 0 -11 -4 -17 -10 -14 -10 6 -14 -7 -11 -32 1
-7 -6 -13 -16 -13 -13 0 -14 -3 -5 -12 8 -8 6 -15 -9 -29 -11 -10 -20 -20 -19
-24 1 -4 -7 -18 -19 -31 -11 -13 -21 -27 -21 -32 -2 -27 -14 -52 -26 -52 -8 0
-11 -6 -7 -16 4 -10 -1 -20 -11 -26 -9 -5 -14 -13 -11 -18 3 -5 1 -11 -5 -15
-5 -3 -10 -13 -10 -22 0 -8 -11 -24 -25 -34 -14 -12 -22 -26 -18 -34 3 -8 1
-15 -5 -15 -5 0 -13 -11 -16 -25 -4 -14 -11 -23 -16 -20 -6 3 -7 -1 -4 -9 4
-9 0 -18 -9 -22 -9 -3 -14 -11 -11 -19 3 -7 -2 -19 -10 -28 -10 -9 -13 -23 -9
-33 4 -12 3 -15 -5 -10 -7 4 -15 1 -18 -8 -3 -9 -11 -13 -17 -9 -6 3 -7 1 -3
-5 9 -14 -15 -52 -32 -52 -7 0 -11 -4 -8 -9 4 -5 1 -11 -4 -13 -6 -2 -12 -10
-13 -18 -1 -8 -42 -54 -89 -102 -93 -92 -115 -101 -145 -58 -8 11 -18 18 -23
15 -4 -3 -7 2 -6 12 2 9 -21 41 -51 71 -29 30 -53 60 -53 66 0 6 -18 28 -40
49 -22 20 -40 43 -40 51 0 8 -13 24 -30 37 -16 13 -30 30 -30 38 0 8 -3 12 -6
8 -9 -8 -34 18 -34 35 0 8 -18 30 -40 51 -22 20 -40 42 -40 49 0 8 -9 20 -20
28 -11 8 -20 20 -20 28 0 7 -3 11 -7 9 -5 -2 -21 9 -36 25 -15 15 -23 28 -17
28 6 0 3 11 -7 24 -10 13 -19 23 -21 21 -6 -5 -52 45 -52 56 0 6 -22 33 -50
60 -30 29 -50 58 -50 71 0 12 -3 19 -6 15 -7 -7 -74 61 -74 75 0 6 -22 33 -50
60 -27 27 -50 54 -50 60 0 6 -20 31 -45 55 -25 25 -42 49 -39 54 3 5 0 9 -5 9
-6 0 -11 6 -11 14 0 8 -9 18 -20 21 -11 3 -20 13 -20 21 0 8 -4 13 -9 10 -5
-3 -11 0 -14 8 -10 26 -41 12 -42 -19 0 -16 -6 -30 -13 -33 -6 -2 -9 -8 -6
-13 3 -6 -1 -18 -10 -28 -9 -10 -14 -25 -11 -33 3 -8 -1 -20 -9 -27 -7 -6 -12
-21 -9 -31 3 -12 -1 -22 -11 -26 -9 -3 -13 -10 -10 -15 3 -5 -2 -16 -11 -25
-9 -9 -13 -24 -10 -35 4 -12 1 -21 -9 -25 -9 -3 -14 -10 -11 -14 3 -5 -1 -14
-8 -22 -8 -7 -13 -22 -11 -33 2 -11 -4 -27 -13 -37 -8 -9 -12 -22 -8 -28 4 -6
-1 -20 -11 -31 -9 -10 -13 -19 -9 -19 4 0 1 -8 -9 -19 -9 -10 -14 -25 -10 -34
4 -10 0 -19 -9 -22 -9 -4 -14 -17 -12 -35 2 -18 -3 -31 -12 -34 -8 -3 -12 -10
-9 -15 4 -5 1 -11 -5 -13 -7 -2 -13 -15 -13 -28 -1 -14 -7 -35 -14 -46 -6 -12
-8 -25 -4 -29 4 -5 0 -6 -9 -2 -13 4 -16 -1 -14 -25 2 -17 -3 -32 -10 -34 -8
-4 -11 -16 -8 -35 3 -22 0 -29 -13 -29 -11 0 -15 -6 -11 -20 3 -12 0 -20 -7
-20 -8 0 -12 -12 -11 -30 1 -24 -4 -32 -31 -45 l-32 -15 -71 70 c-39 39 -70
74 -68 79 1 5 -49 59 -110 120 -62 62 -113 117 -113 123 0 6 -51 61 -113 123
-62 62 -112 116 -110 122 2 5 -10 21 -27 36 -16 15 -30 32 -30 37 0 6 -5 10
-10 10 -14 0 -159 148 -152 154 3 3 -28 38 -69 78 -40 40 -73 76 -71 81 1 4
-3 7 -10 7 -14 0 -78 71 -73 81 3 4 -15 25 -40 47 -24 22 -50 51 -56 66 -7 14
-16 26 -21 26 -5 0 -6 5 -3 10 3 6 -1 10 -10 10 -11 0 -15 5 -12 15 4 8 -4 22
-16 32 -12 10 -23 25 -25 33 -2 8 -7 17 -11 20 -5 3 -7 13 -5 23 1 9 -3 17 -8
17 -15 0 -37 32 -38 53 0 10 -4 16 -9 13 -8 -5 -23 17 -25 37 -1 4 -7 12 -15
16 -7 5 -11 13 -7 19 3 6 0 14 -8 19 -8 4 -14 12 -14 16 1 13 -46 86 -54 87
-5 0 -8 11 -8 25 0 14 -4 25 -10 25 -5 0 -10 9 -10 21 0 11 -4 17 -10 14 -5
-3 -10 3 -10 14 0 12 -5 21 -11 21 -6 0 -9 9 -6 19 3 12 -1 22 -10 25 -8 4
-13 13 -9 21 3 8 1 15 -3 15 -12 0 -62 101 -55 111 3 5 -2 9 -10 9 -10 0 -16
9 -16 26 0 14 -4 23 -10 19 -6 -4 -10 5 -10 19 0 14 -5 26 -11 26 -6 0 -9 6
-6 14 3 8 -1 17 -10 20 -8 4 -13 13 -9 21 3 9 0 15 -9 15 -10 0 -15 10 -15 29
0 17 -4 33 -10 36 -5 3 -10 15 -10 26 0 10 -4 19 -10 19 -5 0 -10 14 -10 30 0
17 -5 30 -11 30 -6 0 -9 6 -6 13 3 7 -4 19 -15 26 -16 10 -17 15 -8 26 10 12
9 16 -4 21 -9 3 -16 17 -16 30 0 13 -4 24 -10 24 -5 0 -10 11 -10 24 0 13 -6
29 -14 36 -8 6 -12 18 -9 26 5 14 -1 34 -28 86 -5 10 -9 27 -9 39 0 11 -6 27
-14 35 -8 7 -12 23 -9 34 3 11 0 20 -6 20 -6 0 -11 10 -11 23 0 13 -5 28 -12
35 -6 6 -11 27 -10 47 1 19 -2 35 -7 35 -5 0 -11 11 -13 25 -3 14 -1 25 5 25
6 0 2 9 -8 20 -10 11 -18 34 -17 50 0 17 -6 42 -13 57 -11 21 -12 29 -2 35 9
6 9 8 -1 8 -7 0 -11 4 -8 9 4 5 1 11 -6 13 -6 2 -11 19 -10 38 0 19 -4 38 -10
41 -6 4 -11 27 -10 50 1 24 -3 46 -9 50 -6 4 -11 32 -11 64 0 33 -5 58 -12 61
-7 3 -10 36 -10 95 1 52 -3 100 -10 113 -7 14 -11 66 -9 136 1 74 -3 123 -11
139 -15 32 -13 70 5 82 12 8 12 11 -1 18 -12 8 -15 36 -14 165 1 115 -2 153
-10 147 -8 -7 -12 -4 -12 10 0 10 4 19 9 19 5 0 4 7 -3 15 -8 10 -9 15 -1 15
7 0 8 8 3 23 -5 12 -7 58 -6 102 1 44 -3 86 -9 92 -5 7 -7 22 -4 33 3 11 0 20
-6 20 -8 0 -8 3 -2 8 12 9 18 32 7 32 -4 0 -7 35 -6 78 1 42 -2 82 -7 88 -5 6
-10 73 -11 148 -2 75 -6 136 -11 136 -5 0 -7 10 -6 23 2 12 0 28 -4 35 -5 7
-3 12 3 12 6 0 8 5 5 11 -4 6 -7 26 -7 45 0 42 -15 44 -29 4z"/>
</g>
</svg>
